400 161 1 0         
7 Unknown 13 ACIS 4.0.2 NT 24 Wed Nov 28 20:00:49 2001 
-1 9.9999999999999995e-007 1e-010 
body $1 $2 $-1 $-1 #
ref_vt-eye-attrib $-1 $-1 $-1 $0 $3 $4 #
lump $5 $-1 $6 $0 #
eye_refinement $-1 5 grid  1 3 tri 2 4 surf 0 3 adj 0 4 grad 0 9 postcheck 0 4 stol 0.037002008408308029 4 ntol 30 4 dsil 0 8 flatness 0 7 pixarea 0 4 hmax 0 6 gridar 0 5 mgrid 300 5 ugrid 0 5 vgrid 0 10 end_fields #
vertex_template $-1 3 0 1 8 #
ref_vt-eye-attrib $-1 $-1 $-1 $2 $3 $4 #
shell $7 $-1 $-1 $8 $-1 $2 #
ref_vt-eye-attrib $-1 $-1 $-1 $6 $3 $4 #
face $9 $10 $11 $6 $-1 $12 forward single #
color-adesk-attrib $-1 $-1 $-1 $8 122 #
face $13 $14 $15 $6 $-1 $16 forward single #
loop $-1 $-1 $17 $8 #
plane-surface $-1 9.5 5 9.5 0.70710678118654757 0 0.70710678118654757 0.70710678118654757 0 -0.70710678118654757 forward_v I I I I #
color-adesk-attrib $-1 $-1 $-1 $10 122 #
face $18 $19 $20 $6 $-1 $21 forward single #
loop $-1 $-1 $22 $10 #
plane-surface $-1 9.5 9.5 5 0.70710678118654757 0.70710678118654757 0 0 0 -1 forward_v I I I I #
coedge $-1 $23 $24 $25 $26 forward $11 $-1 #
color-adesk-attrib $-1 $27 $-1 $14 40 #
face $28 $29 $30 $6 $-1 $31 reversed single #
loop $-1 $-1 $32 $14 #
plane-surface $-1 5 5 10 0 0 1 1 0 0 forward_v I I I I #
coedge $-1 $33 $34 $35 $36 forward $15 $-1 #
coedge $-1 $37 $17 $38 $39 forward $11 $-1 #
coedge $-1 $17 $37 $32 $40 forward $11 $-1 #
coedge $-1 $41 $42 $17 $26 reversed $43 $-1 #
edge $44 $45 $46 $25 $47 forward #
ref_vt-eye-attrib $-1 $-1 $18 $14 $3 $4 #
color-adesk-attrib $-1 $48 $-1 $19 40 #
face $49 $50 $51 $6 $-1 $52 reversed single #
loop $-1 $-1 $53 $19 #
plane-surface $-1 5 10 5 0 -1 0 0 0 -1 forward_v I I I I #
coedge $-1 $54 $55 $24 $40 reversed $20 $-1 #
coedge $-1 $56 $22 $53 $57 forward $15 $-1 #
coedge $-1 $22 $56 $58 $59 forward $15 $-1 #
coedge $-1 $60 $61 $22 $36 reversed $51 $-1 #
edge $62 $63 $64 $35 $65 forward #
coedge $-1 $24 $23 $56 $66 forward $11 $-1 #
coedge $-1 $67 $58 $23 $39 reversed $68 $-1 #
edge $69 $46 $70 $38 $71 forward #
edge $72 $73 $45 $32 $74 forward #
coedge $-1 $75 $25 $55 $76 reversed $43 $-1 #
coedge $-1 $25 $77 $67 $78 reversed $43 $-1 #
loop $-1 $-1 $25 $50 #
color-adesk-attrib $-1 $-1 $-1 $26 40 #
vertex $-1 $40 $79 #
vertex $-1 $78 $80 #
straight-curve $-1 9.5 0 9.5 0.70710678118654757 0 -0.70710678118654757 I I #
ref_vt-eye-attrib $-1 $-1 $28 $19 $3 $4 #
color-adesk-attrib $-1 $81 $-1 $29 256 #
face $82 $83 $43 $6 $-1 $84 reversed single #
loop $-1 $-1 $35 $29 #
plane-surface $-1 5 5 0 0 0 1 1 0 0 forward_v I I I I #
coedge $-1 $85 $86 $33 $57 reversed $30 $-1 #
coedge $-1 $87 $32 $86 $88 forward $20 $-1 #
coedge $-1 $32 $87 $41 $76 forward $20 $-1 #
coedge $-1 $34 $33 $37 $66 reversed $15 $-1 #
edge $89 $64 $73 $53 $90 forward #
coedge $-1 $38 $91 $34 $59 reversed $68 $-1 #
edge $92 $70 $63 $58 $93 forward #
coedge $-1 $94 $35 $91 $95 forward $51 $-1 #
coedge $-1 $35 $96 $85 $97 forward $51 $-1 #
color-adesk-attrib $-1 $-1 $-1 $36 122 #
vertex $-1 $95 $98 #
vertex $-1 $36 $99 #
straight-curve $-1 9.5 9.5 0 -0.70710678118654757 0.70710678118654757 0 I I #
edge $100 $70 $73 $37 $101 forward #
coedge $-1 $91 $38 $42 $78 forward $68 $-1 #
loop $-1 $-1 $38 $102 #
color-adesk-attrib $-1 $-1 $-1 $39 122 #
vertex $-1 $39 $103 #
straight-curve $-1 10 5 9 0 1 0 F -8.0999999999999996 F 8.0999999999999996 #
color-adesk-attrib $-1 $-1 $-1 $40 40 #
vertex $-1 $88 $104 #
straight-curve $-1 9 5 10 0 -1 0 F -8.0999999999999996 F 8.0999999999999996 #
coedge $-1 $77 $41 $105 $106 forward $43 $-1 #
edge $107 $108 $45 $41 $109 forward #
coedge $-1 $42 $75 $94 $110 reversed $43 $-1 #
edge $111 $46 $112 $67 $113 forward #
point $-1 9 0 10 #
point $-1 10 0 9 #
ref_vt-eye-attrib $-1 $-1 $49 $29 $3 $4 #
color-adesk-attrib $-1 $114 $-1 $50 40 #
face $115 $102 $116 $6 $-1 $117 reversed single #
plane-surface $-1 5 0 5 0 1 0 0 0 1 forward_v I I I I #
coedge $-1 $118 $53 $61 $97 reversed $30 $-1 #
coedge $-1 $53 $118 $54 $88 reversed $30 $-1 #
coedge $-1 $55 $54 $119 $120 forward $20 $-1 #
edge $121 $73 $122 $86 $123 forward #
color-adesk-attrib $-1 $-1 $-1 $57 40 #
straight-curve $-1 9 10 5 0 0 1 F -8.0999999999999996 F 8.0999999999999996 #
coedge $-1 $58 $67 $60 $95 reversed $68 $-1 #
color-adesk-attrib $-1 $-1 $-1 $59 122 #
straight-curve $-1 10 9 5 0 0 -1 F -8.0999999999999996 F 8.0999999999999996 #
coedge $-1 $96 $60 $77 $110 forward $51 $-1 #
edge $124 $63 $112 $91 $125 forward #
coedge $-1 $61 $94 $126 $127 forward $51 $-1 #
edge $128 $129 $64 $85 $130 forward #
point $-1 10 9 0 #
point $-1 9 10 0 #
color-adesk-attrib $-1 $-1 $-1 $66 122 #
straight-curve $-1 10.166666666666666 8.8333333333333339 8.8333333333333339 -0.57735026918962584 0.57735026918962584 0.57735026918962584 I I #
face $131 $-1 $68 $6 $-1 $132 reversed single #
point $-1 10 9 9 #
point $-1 9 10 10 #
coedge $-1 $119 $126 $75 $106 reversed $116 $-1 #
edge $133 $108 $134 $105 $135 forward #
color-adesk-attrib $-1 $-1 $-1 $76 40 #
vertex $-1 $120 $136 #
straight-curve $-1 5 0 10 1 0 0 I I #
edge $137 $112 $134 $77 $138 forward #
color-adesk-attrib $-1 $-1 $-1 $78 40 #
vertex $-1 $78 $139 #
straight-curve $-1 10 0 5 0 0 -1 I I #
fmesh-eye-attrib $-1 $140 $82 $50 #
color-adesk-attrib $-1 $141 $-1 $83 256 #
loop $-1 $-1 $142 $83 #
plane-surface $-1 0 5 5 1 0 0 0 0 -1 forward_v I I I I #
coedge $-1 $86 $85 $142 $143 reversed $30 $-1 #
coedge $-1 $142 $105 $87 $120 reversed $116 $-1 #
edge $144 $122 $108 $119 $145 forward #
color-adesk-attrib $-1 $-1 $-1 $88 40 #
vertex $-1 $88 $146 #
straight-curve $-1 5 10 10 -1 0 0 I I #
color-adesk-attrib $-1 $-1 $-1 $95 256 #
straight-curve $-1 10 5 0 0 -1 0 I I #
coedge $-1 $105 $142 $96 $127 reversed $116 $-1 #
edge $147 $134 $129 $126 $148 forward #
color-adesk-attrib $-1 $-1 $-1 $97 40 #
vertex $-1 $97 $149 #
straight-curve $-1 5 10 0 1 0 0 I I #
color-adesk-attrib $-1 $150 $-1 $102 256 #
plane-surface $-1 10 5 5 -1 0 0 0 0 1 forward_v I I I I #
color-adesk-attrib $-1 $151 $-1 $106 40 #
vertex $-1 $127 $152 #
straight-curve $-1 0 0 5 0 0 -1 I I #
point $-1 0 0 10 #
color-adesk-attrib $-1 $153 $-1 $110 40 #
straight-curve $-1 5 0 0 -1 0 0 I I #
point $-1 10 0 0 #
ref_vt-eye-attrib $-1 $-1 $114 $50 $3 $4 #
fmesh-eye-attrib $-1 $154 $115 $83 #
coedge $-1 $126 $119 $118 $143 forward $116 $-1 #
edge $155 $122 $129 $118 $156 forward #
color-adesk-attrib $-1 $157 $-1 $120 40 #
straight-curve $-1 0 5 10 0 -1 0 I I #
point $-1 0 10 10 #
color-adesk-attrib $-1 $158 $-1 $127 256 #
straight-curve $-1 0 5 0 0 1 0 I I #
point $-1 0 10 0 #
fmesh-eye-attrib $-1 $159 $131 $102 #
ptlist-eye-attrib $-1 $-1 $133 $106 #
point $-1 0 0 0 #
ptlist-eye-attrib $-1 $-1 $137 $110 #
ref_vt-eye-attrib $-1 $-1 $141 $83 $3 $4 #
color-adesk-attrib $-1 $160 $-1 $143 40 #
straight-curve $-1 0 10 5 0 0 -1 I I #
ptlist-eye-attrib $-1 $-1 $144 $120 #
ptlist-eye-attrib $-1 $-1 $147 $127 #
ref_vt-eye-attrib $-1 $-1 $150 $102 $3 $4 #
ptlist-eye-attrib $-1 $-1 $155 $143 #
