600 0 4 0           
4 test 13 ACIS 6.0.3 NT 24 Fri Nov 23 10:20:29 2001 
1000 9.9999999999999995e-007 1e-010 
face $-1 $-1 $4 $-1 $-1 $5 forward single #
shell $-1 $-1 $-1 $6 $-1 $-1 #
subshell $-1 $-1 $-1 $-1 $7 $-1 #
lump $-1 $-1 $8 $-1 #
loop $-1 $-1 $9 $0 #
plane-surface $-1 0 0 0 0 0 1 1 0 0 forward_v I I I I #
face $-1 $-1 $10 $1 $-1 $11 forward single #
face $-1 $-1 $12 $-1 $2 $13 forward single #
shell $-1 $-1 $-1 $14 $-1 $3 #
coedge $-1 $15 $16 $-1 $17 forward $4 $-1 #
loop $-1 $-1 $18 $6 #
plane-surface $-1 0 0 0 0 0 1 1 0 0 forward_v I I I I #
loop $-1 $-1 $19 $7 #
plane-surface $-1 0 0 0 0 0 1 1 0 0 forward_v I I I I #
face $-1 $-1 $20 $8 $-1 $21 forward single #
coedge $-1 $22 $9 $-1 $23 forward $4 $-1 #
coedge $-1 $9 $22 $-1 $24 forward $4 $-1 #
edge $-1 $25 0 $26 10 $9 $27 forward 7 unknown #
coedge $-1 $28 $29 $-1 $30 forward $10 $-1 #
coedge $-1 $31 $32 $-1 $33 forward $12 $-1 #
loop $-1 $-1 $34 $14 #
plane-surface $-1 0 0 0 0 0 1 1 0 0 forward_v I I I I #
coedge $-1 $16 $15 $-1 $35 forward $4 $-1 #
edge $-1 $26 0 $36 10 $15 $37 forward 7 unknown #
edge $-1 $38 0 $25 10 $16 $39 forward 7 unknown #
vertex $-1 $17 $40 #
vertex $-1 $17 $41 #
straight-curve $-1 0 0 0 1 0 0 I I #
coedge $-1 $42 $18 $-1 $43 forward $10 $-1 #
coedge $-1 $18 $42 $-1 $44 forward $10 $-1 #
edge $-1 $45 0 $46 10 $18 $47 forward 7 unknown #
coedge $-1 $48 $19 $-1 $49 forward $12 $-1 #
coedge $-1 $19 $48 $-1 $50 forward $12 $-1 #
edge $-1 $51 0 $52 10 $19 $53 forward 7 unknown #
coedge $-1 $54 $55 $-1 $56 forward $20 $-1 #
edge $-1 $36 0 $38 10 $22 $57 forward 7 unknown #
vertex $-1 $23 $58 #
straight-curve $-1 10 0 0 0 1 0 I I #
vertex $-1 $35 $59 #
straight-curve $-1 0 10 0 0 -1 0 I I #
point $-1 0 0 0 #
point $-1 10 0 0 #
coedge $-1 $29 $28 $-1 $60 forward $10 $-1 #
edge $-1 $46 0 $61 10 $28 $62 forward 7 unknown #
edge $-1 $63 0 $45 10 $29 $64 forward 7 unknown #
vertex $-1 $30 $65 #
vertex $-1 $30 $66 #
straight-curve $-1 0 0 0 1 0 0 I I #
coedge $-1 $32 $31 $-1 $67 forward $12 $-1 #
edge $-1 $52 0 $68 10 $31 $69 forward 7 unknown #
edge $-1 $70 0 $51 10 $32 $71 forward 7 unknown #
vertex $-1 $33 $72 #
vertex $-1 $33 $73 #
straight-curve $-1 0 0 0 1 0 0 I I #
coedge $-1 $74 $34 $-1 $75 forward $20 $-1 #
coedge $-1 $34 $74 $-1 $76 forward $20 $-1 #
edge $-1 $77 0 $78 10 $34 $79 forward 7 unknown #
straight-curve $-1 10 10 0 -1 0 0 I I #
point $-1 10 10 0 #
point $-1 0 10 0 #
edge $-1 $61 0 $63 10 $42 $80 forward 7 unknown #
vertex $-1 $43 $81 #
straight-curve $-1 10 0 0 0 1 0 I I #
vertex $-1 $60 $82 #
straight-curve $-1 0 10 0 0 -1 0 I I #
point $-1 0 0 0 #
point $-1 10 0 0 #
edge $-1 $68 0 $70 10 $48 $83 forward 7 unknown #
vertex $-1 $49 $84 #
straight-curve $-1 10 0 0 0 1 0 I I #
vertex $-1 $67 $85 #
straight-curve $-1 0 10 0 0 -1 0 I I #
point $-1 0 0 0 #
point $-1 10 0 0 #
coedge $-1 $55 $54 $-1 $86 forward $20 $-1 #
edge $-1 $78 0 $87 10 $54 $88 forward 7 unknown #
edge $-1 $89 0 $77 10 $55 $90 forward 7 unknown #
vertex $-1 $56 $91 #
vertex $-1 $56 $92 #
straight-curve $-1 0 0 0 1 0 0 I I #
straight-curve $-1 10 10 0 -1 0 0 I I #
point $-1 10 10 0 #
point $-1 0 10 0 #
straight-curve $-1 10 10 0 -1 0 0 I I #
point $-1 10 10 0 #
point $-1 0 10 0 #
edge $-1 $87 0 $89 10 $74 $93 forward 7 unknown #
vertex $-1 $75 $94 #
straight-curve $-1 10 0 0 0 1 0 I I #
vertex $-1 $86 $95 #
straight-curve $-1 0 10 0 0 -1 0 I I #
point $-1 0 0 0 #
point $-1 10 0 0 #
straight-curve $-1 10 10 0 -1 0 0 I I #
point $-1 10 10 0 #
point $-1 0 10 0 #
End-of-ACIS-data 
